<svg viewBox="0 0 1200 630" xmlns="http://www.w3.org/2000/svg" width="1200" height="630">
<rect width="1200" height="630" fill="#0f1a12"/>
<defs><pattern id="grid" width="40" height="40" patternUnits="userSpaceOnUse"><path d="M 40 0 L 0 0 0 40" fill="none" stroke="#16a34a" stroke-width="0.3" opacity="0.25"/></pattern></defs>
<rect width="1200" height="630" fill="url(#grid)"/>
<rect x="0" y="0" width="8" height="630" fill="#16a34a"/>
<circle cx="980" cy="315" r="380" fill="#16a34a" opacity="0.06"/>
<circle cx="980" cy="315" r="260" fill="#16a34a" opacity="0.08"/>
<circle cx="980" cy="315" r="140" fill="#16a34a" opacity="0.10"/>
<rect x="60" y="58" width="240" height="32" rx="6" fill="#16a34a" opacity="0.2"/>
<rect x="60" y="58" width="240" height="32" rx="6" fill="none" stroke="#16a34a" stroke-width="1"/>
<text x="180" y="80" font-family="Arial, sans-serif" font-size="13" font-weight="700" fill="#4ade80" text-anchor="middle" letter-spacing="2">EST. 2017 · COIMBATORE</text>
<text x="60" y="180" font-family="Arial, sans-serif" font-size="82" font-weight="900" fill="#ffffff" letter-spacing="-2">DEEPU SIVA</text>
<text x="60" y="255" font-family="Arial, sans-serif" font-size="38" font-weight="700" fill="#4ade80" letter-spacing="4">PRIVATE LIMITED</text>
<rect x="60" y="282" width="520" height="3" rx="1.5" fill="#16a34a"/>
<text x="60" y="330" font-family="Arial, sans-serif" font-size="22" font-weight="400" fill="#d1fae5" letter-spacing="0.5">Metal Fabrication · Industrial Roofing · Solar Structures</text>
<rect x="60" y="368" width="185" height="38" rx="19" fill="#16a34a" opacity="0.9"/>
<text x="152" y="392" font-family="Arial, sans-serif" font-size="14" font-weight="700" fill="#ffffff" text-anchor="middle">Metal Fabrication</text>
<rect x="258" y="368" width="165" height="38" rx="19" fill="#16a34a" opacity="0.7"/>
<text x="340" y="392" font-family="Arial, sans-serif" font-size="14" font-weight="700" fill="#ffffff" text-anchor="middle">Industrial Roofing</text>
<rect x="436" y="368" width="165" height="38" rx="19" fill="#16a34a" opacity="0.7"/>
<text x="518" y="392" font-family="Arial, sans-serif" font-size="14" font-weight="700" fill="#ffffff" text-anchor="middle">Solar Structures</text>
<text x="60" y="470" font-family="Arial, sans-serif" font-size="18" font-weight="400" fill="#86efac">+91 84890 90666  ·  contact@deepusiva.com  ·  deepusiva.com</text>
<rect x="0" y="560" width="1200" height="70" fill="#16a34a" opacity="0.12"/>
<rect x="0" y="560" width="1200" height="2" fill="#16a34a"/>
<text x="60" y="603" font-family="Arial, sans-serif" font-size="15" font-weight="700" fill="#4ade80" letter-spacing="1">FREE SOLAR ROI CALCULATOR AVAILABLE ON WEBSITE</text>
<text x="1140" y="603" font-family="Arial, sans-serif" font-size="15" font-weight="700" fill="#4ade80" text-anchor="end" letter-spacing="1">TAMIL NADU · INDIA</text>
<rect x="1090" y="48" width="88" height="88" rx="20" fill="#16a34a" opacity="0.15"/>
<rect x="1090" y="48" width="88" height="88" rx="20" fill="none" stroke="#16a34a" stroke-width="1.5"/>
<text x="1134" y="93" font-family="Arial, sans-serif" font-size="28" font-weight="900" fill="#4ade80" text-anchor="middle">DS</text>
<text x="1134" y="116" font-family="Arial, sans-serif" font-size="10" font-weight="700" fill="#86efac" text-anchor="middle" letter-spacing="1">PVT LTD</text>
</svg>
